<svg xmlns="http://www.w3.org/2000/svg" viewBox="0 0 1035 863" role="img" aria-labelledby="title">
<title id="title">Per-cell AUROC heatmap</title><style>
text{font-family:ui-sans-serif,system-ui,-apple-system,"Segoe UI",sans-serif;fill:#18202a}
.title{font-size:18px;font-weight:700}.label{font-size:11px}.small{font-size:9px;fill:#637080}
.axis{stroke:#aeb6c2;stroke-width:1}.grid{stroke:#e5e8eb;stroke-width:1}.tick{font-size:10px;fill:#637080}
</style><rect width="100%" height="100%" fill="#fff"/><text class="title" x="18" y="27">Per-cell candidate-level AUROC</text><text class="small" x="437.5" y="58" text-anchor="middle">Gsm8K T1.0</text><text class="small" x="542.5" y="58" text-anchor="middle">Triviaqa T1.0</text><text class="small" x="647.5" y="58" text-anchor="middle">Sciq T1.0</text><text class="small" x="752.5" y="58" text-anchor="middle">Truthfulqa T0.5</text><text class="small" x="857.5" y="58" text-anchor="middle">Squadv2 T0.5</text><text class="small" x="962.5" y="58" text-anchor="middle">Nq Open T0.5</text><text class="label" x="375" y="89" text-anchor="end">final_layer_nll · resid-core-32 · all32</text><rect x="385" y="72" width="103" height="25" rx="2" fill="#4f9182"/><text x="436.5" y="89" text-anchor="middle" font-size="10" fill="#fff" style="fill:#fff">0.770</text><rect x="490" y="72" width="103" height="25" rx="2" fill="#358270"/><text x="541.5" y="89" text-anchor="middle" font-size="10" fill="#fff" style="fill:#fff">0.825</text><rect x="595" y="72" width="103" height="25" rx="2" fill="#6ba295"/><text x="646.5" y="89" text-anchor="middle" font-size="10" fill="#fff" style="fill:#fff">0.710</text><rect x="700" y="72" width="103" height="25" rx="2" fill="#92bab0"/><text x="751.5" y="89" text-anchor="middle" font-size="10" fill="#18202a" style="fill:#18202a">0.624</text><rect x="805" y="72" width="103" height="25" rx="2" fill="#7baca0"/><text x="856.5" y="89" text-anchor="middle" font-size="10" fill="#fff" style="fill:#fff">0.675</text><rect x="910" y="72" width="103" height="25" rx="2" fill="#609b8d"/><text x="961.5" y="89" text-anchor="middle" font-size="10" fill="#fff" style="fill:#fff">0.734</text><text class="label" x="375" y="116" text-anchor="end">equal_mean · resid-core-32 · all32</text><rect x="385" y="99" width="103" height="25" rx="2" fill="#b7d1c9"/><text x="436.5" y="116" text-anchor="middle" font-size="10" fill="#18202a" style="fill:#18202a">0.545</text><rect x="490" y="99" width="103" height="25" rx="2" fill="#408877"/><text x="541.5" y="116" text-anchor="middle" font-size="10" fill="#fff" style="fill:#fff">0.802</text><rect x="595" y="99" width="103" height="25" rx="2" fill="#589788"/><text x="646.5" y="116" text-anchor="middle" font-size="10" fill="#fff" style="fill:#fff">0.750</text><rect x="700" y="99" width="103" height="25" rx="2" fill="#d3e1dc"/><text x="751.5" y="116" text-anchor="middle" font-size="10" fill="#18202a" style="fill:#18202a">0.485</text><rect x="805" y="99" width="103" height="25" rx="2" fill="#639d8f"/><text x="856.5" y="116" text-anchor="middle" font-size="10" fill="#fff" style="fill:#fff">0.727</text><rect x="910" y="99" width="103" height="25" rx="2" fill="#9abfb6"/><text x="961.5" y="116" text-anchor="middle" font-size="10" fill="#18202a" style="fill:#18202a">0.607</text><text class="label" x="375" y="143" text-anchor="end">pc1 · resid-core-32 · all32</text><rect x="385" y="126" width="103" height="25" rx="2" fill="#a2c4bb"/><text x="436.5" y="143" text-anchor="middle" font-size="10" fill="#18202a" style="fill:#18202a">0.589</text><rect x="490" y="126" width="103" height="25" rx="2" fill="#317f6d"/><text x="541.5" y="143" text-anchor="middle" font-size="10" fill="#fff" style="fill:#fff">0.835</text><rect x="595" y="126" width="103" height="25" rx="2" fill="#5a9889"/><text x="646.5" y="143" text-anchor="middle" font-size="10" fill="#fff" style="fill:#fff">0.746</text><rect x="700" y="126" width="103" height="25" rx="2" fill="#cedfda"/><text x="751.5" y="143" text-anchor="middle" font-size="10" fill="#18202a" style="fill:#18202a">0.494</text><rect x="805" y="126" width="103" height="25" rx="2" fill="#5a9889"/><text x="856.5" y="143" text-anchor="middle" font-size="10" fill="#fff" style="fill:#fff">0.747</text><rect x="910" y="126" width="103" height="25" rx="2" fill="#96bdb3"/><text x="961.5" y="143" text-anchor="middle" font-size="10" fill="#18202a" style="fill:#18202a">0.615</text><text class="label" x="375" y="170" text-anchor="end">token_length · resid-core-32 · all32</text><rect x="385" y="153" width="103" height="25" rx="2" fill="#639e90"/><text x="436.5" y="170" text-anchor="middle" font-size="10" fill="#fff" style="fill:#fff">0.726</text><rect x="490" y="153" width="103" height="25" rx="2" fill="#1e7460"/><text x="541.5" y="170" text-anchor="middle" font-size="10" fill="#fff" style="fill:#fff">0.875</text><rect x="595" y="153" width="103" height="25" rx="2" fill="#669f91"/><text x="646.5" y="170" text-anchor="middle" font-size="10" fill="#fff" style="fill:#fff">0.721</text><rect x="700" y="153" width="103" height="25" rx="2" fill="#74a89b"/><text x="751.5" y="170" text-anchor="middle" font-size="10" fill="#fff" style="fill:#fff">0.689</text><rect x="805" y="153" width="103" height="25" rx="2" fill="#569687"/><text x="856.5" y="170" text-anchor="middle" font-size="10" fill="#fff" style="fill:#fff">0.754</text><rect x="910" y="153" width="103" height="25" rx="2" fill="#97bdb4"/><text x="961.5" y="170" text-anchor="middle" font-size="10" fill="#18202a" style="fill:#18202a">0.613</text><text class="label" x="375" y="197" text-anchor="end">upcr · resid-core-32 · all32</text><rect x="385" y="180" width="103" height="25" rx="2" fill="#a6c7be"/><text x="436.5" y="197" text-anchor="middle" font-size="10" fill="#18202a" style="fill:#18202a">0.580</text><rect x="490" y="180" width="103" height="25" rx="2" fill="#33806e"/><text x="541.5" y="197" text-anchor="middle" font-size="10" fill="#fff" style="fill:#fff">0.831</text><rect x="595" y="180" width="103" height="25" rx="2" fill="#599788"/><text x="646.5" y="197" text-anchor="middle" font-size="10" fill="#fff" style="fill:#fff">0.749</text><rect x="700" y="180" width="103" height="25" rx="2" fill="#ccddd8"/><text x="751.5" y="197" text-anchor="middle" font-size="10" fill="#18202a" style="fill:#18202a">0.499</text><rect x="805" y="180" width="103" height="25" rx="2" fill="#5d998b"/><text x="856.5" y="197" text-anchor="middle" font-size="10" fill="#fff" style="fill:#fff">0.741</text><rect x="910" y="180" width="103" height="25" rx="2" fill="#95bcb2"/><text x="961.5" y="197" text-anchor="middle" font-size="10" fill="#18202a" style="fill:#18202a">0.618</text><text class="label" x="375" y="224" text-anchor="end">iu_pcr · resid-core-32 · all32</text><rect x="385" y="207" width="103" height="25" rx="2" fill="#a6c7be"/><text x="436.5" y="224" text-anchor="middle" font-size="10" fill="#18202a" style="fill:#18202a">0.580</text><rect x="490" y="207" width="103" height="25" rx="2" fill="#34816f"/><text x="541.5" y="224" text-anchor="middle" font-size="10" fill="#fff" style="fill:#fff">0.828</text><rect x="595" y="207" width="103" height="25" rx="2" fill="#539384"/><text x="646.5" y="224" text-anchor="middle" font-size="10" fill="#fff" style="fill:#fff">0.762</text><rect x="700" y="207" width="103" height="25" rx="2" fill="#cadcd7"/><text x="751.5" y="224" text-anchor="middle" font-size="10" fill="#18202a" style="fill:#18202a">0.502</text><rect x="805" y="207" width="103" height="25" rx="2" fill="#5c998b"/><text x="856.5" y="224" text-anchor="middle" font-size="10" fill="#fff" style="fill:#fff">0.741</text><rect x="910" y="207" width="103" height="25" rx="2" fill="#92bab0"/><text x="961.5" y="224" text-anchor="middle" font-size="10" fill="#18202a" style="fill:#18202a">0.625</text><text class="label" x="375" y="251" text-anchor="end">dufs_liu_pcr · resid-core-32 · all32</text><rect x="385" y="234" width="103" height="25" rx="2" fill="#aecbc3"/><text x="436.5" y="251" text-anchor="middle" font-size="10" fill="#18202a" style="fill:#18202a">0.565</text><rect x="490" y="234" width="103" height="25" rx="2" fill="#32806e"/><text x="541.5" y="251" text-anchor="middle" font-size="10" fill="#fff" style="fill:#fff">0.832</text><rect x="595" y="234" width="103" height="25" rx="2" fill="#539484"/><text x="646.5" y="251" text-anchor="middle" font-size="10" fill="#fff" style="fill:#fff">0.762</text><rect x="700" y="234" width="103" height="25" rx="2" fill="#cbddd7"/><text x="751.5" y="251" text-anchor="middle" font-size="10" fill="#18202a" style="fill:#18202a">0.502</text><rect x="805" y="234" width="103" height="25" rx="2" fill="#5b988a"/><text x="856.5" y="251" text-anchor="middle" font-size="10" fill="#fff" style="fill:#fff">0.744</text><rect x="910" y="234" width="103" height="25" rx="2" fill="#94bbb1"/><text x="961.5" y="251" text-anchor="middle" font-size="10" fill="#18202a" style="fill:#18202a">0.621</text><text class="label" x="375" y="278" text-anchor="end">upcr · resid-core-8 · spaced8</text><rect x="385" y="261" width="103" height="25" rx="2" fill="#a7c7be"/><text x="436.5" y="278" text-anchor="middle" font-size="10" fill="#18202a" style="fill:#18202a">0.579</text><rect x="490" y="261" width="103" height="25" rx="2" fill="#2d7c6a"/><text x="541.5" y="278" text-anchor="middle" font-size="10" fill="#fff" style="fill:#fff">0.844</text><rect x="595" y="261" width="103" height="25" rx="2" fill="#589788"/><text x="646.5" y="278" text-anchor="middle" font-size="10" fill="#fff" style="fill:#fff">0.750</text><rect x="700" y="261" width="103" height="25" rx="2" fill="#cadcd7"/><text x="751.5" y="278" text-anchor="middle" font-size="10" fill="#18202a" style="fill:#18202a">0.502</text><rect x="805" y="261" width="103" height="25" rx="2" fill="#5a9889"/><text x="856.5" y="278" text-anchor="middle" font-size="10" fill="#fff" style="fill:#fff">0.747</text><rect x="910" y="261" width="103" height="25" rx="2" fill="#93bbb1"/><text x="961.5" y="278" text-anchor="middle" font-size="10" fill="#18202a" style="fill:#18202a">0.621</text><text class="label" x="375" y="305" text-anchor="end">iu_pcr · resid-core-8 · spaced8</text><rect x="385" y="288" width="103" height="25" rx="2" fill="#a2c4bb"/><text x="436.5" y="305" text-anchor="middle" font-size="10" fill="#18202a" style="fill:#18202a">0.591</text><rect x="490" y="288" width="103" height="25" rx="2" fill="#287967"/><text x="541.5" y="305" text-anchor="middle" font-size="10" fill="#fff" style="fill:#fff">0.855</text><rect x="595" y="288" width="103" height="25" rx="2" fill="#509283"/><text x="646.5" y="305" text-anchor="middle" font-size="10" fill="#fff" style="fill:#fff">0.767</text><rect x="700" y="288" width="103" height="25" rx="2" fill="#c0d6d0"/><text x="751.5" y="305" text-anchor="middle" font-size="10" fill="#18202a" style="fill:#18202a">0.524</text><rect x="805" y="288" width="103" height="25" rx="2" fill="#589788"/><text x="856.5" y="305" text-anchor="middle" font-size="10" fill="#fff" style="fill:#fff">0.750</text><rect x="910" y="288" width="103" height="25" rx="2" fill="#87b4a8"/><text x="961.5" y="305" text-anchor="middle" font-size="10" fill="#18202a" style="fill:#18202a">0.648</text><text class="label" x="375" y="332" text-anchor="end">dufs_liu_pcr · resid-core-8 · spaced8</text><rect x="385" y="315" width="103" height="25" rx="2" fill="#a3c4bb"/><text x="436.5" y="332" text-anchor="middle" font-size="10" fill="#18202a" style="fill:#18202a">0.589</text><rect x="490" y="315" width="103" height="25" rx="2" fill="#287967"/><text x="541.5" y="332" text-anchor="middle" font-size="10" fill="#fff" style="fill:#fff">0.855</text><rect x="595" y="315" width="103" height="25" rx="2" fill="#509282"/><text x="646.5" y="332" text-anchor="middle" font-size="10" fill="#fff" style="fill:#fff">0.768</text><rect x="700" y="315" width="103" height="25" rx="2" fill="#c1d6d0"/><text x="751.5" y="332" text-anchor="middle" font-size="10" fill="#18202a" style="fill:#18202a">0.524</text><rect x="805" y="315" width="103" height="25" rx="2" fill="#589788"/><text x="856.5" y="332" text-anchor="middle" font-size="10" fill="#fff" style="fill:#fff">0.751</text><rect x="910" y="315" width="103" height="25" rx="2" fill="#88b4a9"/><text x="961.5" y="332" text-anchor="middle" font-size="10" fill="#18202a" style="fill:#18202a">0.647</text><text class="label" x="375" y="359" text-anchor="end">upcr · resid-core-8 · late8</text><rect x="385" y="342" width="103" height="25" rx="2" fill="#a7c7bf"/><text x="436.5" y="359" text-anchor="middle" font-size="10" fill="#18202a" style="fill:#18202a">0.579</text><rect x="490" y="342" width="103" height="25" rx="2" fill="#488d7d"/><text x="541.5" y="359" text-anchor="middle" font-size="10" fill="#fff" style="fill:#fff">0.785</text><rect x="595" y="342" width="103" height="25" rx="2" fill="#68a093"/><text x="646.5" y="359" text-anchor="middle" font-size="10" fill="#fff" style="fill:#fff">0.717</text><rect x="700" y="342" width="103" height="25" rx="2" fill="#e1eae7"/><text x="751.5" y="359" text-anchor="middle" font-size="10" fill="#18202a" style="fill:#18202a">0.453</text><rect x="805" y="342" width="103" height="25" rx="2" fill="#619c8e"/><text x="856.5" y="359" text-anchor="middle" font-size="10" fill="#fff" style="fill:#fff">0.731</text><rect x="910" y="342" width="103" height="25" rx="2" fill="#d7e4e0"/><text x="961.5" y="359" text-anchor="middle" font-size="10" fill="#18202a" style="fill:#18202a">0.475</text><text class="label" x="375" y="386" text-anchor="end">iu_pcr · resid-core-8 · late8</text><rect x="385" y="369" width="103" height="25" rx="2" fill="#99beb4"/><text x="436.5" y="386" text-anchor="middle" font-size="10" fill="#18202a" style="fill:#18202a">0.610</text><rect x="490" y="369" width="103" height="25" rx="2" fill="#398472"/><text x="541.5" y="386" text-anchor="middle" font-size="10" fill="#fff" style="fill:#fff">0.818</text><rect x="595" y="369" width="103" height="25" rx="2" fill="#599789"/><text x="646.5" y="386" text-anchor="middle" font-size="10" fill="#fff" style="fill:#fff">0.748</text><rect x="700" y="369" width="103" height="25" rx="2" fill="#d9e5e1"/><text x="751.5" y="386" text-anchor="middle" font-size="10" fill="#18202a" style="fill:#18202a">0.471</text><rect x="805" y="369" width="103" height="25" rx="2" fill="#519283"/><text x="856.5" y="386" text-anchor="middle" font-size="10" fill="#fff" style="fill:#fff">0.766</text><rect x="910" y="369" width="103" height="25" rx="2" fill="#b0cdc5"/><text x="961.5" y="386" text-anchor="middle" font-size="10" fill="#18202a" style="fill:#18202a">0.559</text><text class="label" x="375" y="413" text-anchor="end">dufs_liu_pcr · resid-core-8 · late8</text><rect x="385" y="396" width="103" height="25" rx="2" fill="#99beb5"/><text x="436.5" y="413" text-anchor="middle" font-size="10" fill="#18202a" style="fill:#18202a">0.610</text><rect x="490" y="396" width="103" height="25" rx="2" fill="#3a8573"/><text x="541.5" y="413" text-anchor="middle" font-size="10" fill="#fff" style="fill:#fff">0.815</text><rect x="595" y="396" width="103" height="25" rx="2" fill="#5a9889"/><text x="646.5" y="413" text-anchor="middle" font-size="10" fill="#fff" style="fill:#fff">0.747</text><rect x="700" y="396" width="103" height="25" rx="2" fill="#dae6e1"/><text x="751.5" y="413" text-anchor="middle" font-size="10" fill="#18202a" style="fill:#18202a">0.469</text><rect x="805" y="396" width="103" height="25" rx="2" fill="#519383"/><text x="856.5" y="413" text-anchor="middle" font-size="10" fill="#fff" style="fill:#fff">0.765</text><rect x="910" y="396" width="103" height="25" rx="2" fill="#b1cdc6"/><text x="961.5" y="413" text-anchor="middle" font-size="10" fill="#18202a" style="fill:#18202a">0.557</text><text class="label" x="375" y="440" text-anchor="end">su_pcr · resid-core-32 · all32 · dependency</text><rect x="385" y="423" width="103" height="25" rx="2" fill="#a6c6be"/><text x="436.5" y="440" text-anchor="middle" font-size="10" fill="#18202a" style="fill:#18202a">0.581</text><rect x="490" y="423" width="103" height="25" rx="2" fill="#34816f"/><text x="541.5" y="440" text-anchor="middle" font-size="10" fill="#fff" style="fill:#fff">0.828</text><rect x="595" y="423" width="103" height="25" rx="2" fill="#649e90"/><text x="646.5" y="440" text-anchor="middle" font-size="10" fill="#fff" style="fill:#fff">0.725</text><rect x="700" y="423" width="103" height="25" rx="2" fill="#cadcd7"/><text x="751.5" y="440" text-anchor="middle" font-size="10" fill="#18202a" style="fill:#18202a">0.502</text><rect x="805" y="423" width="103" height="25" rx="2" fill="#5c998b"/><text x="856.5" y="440" text-anchor="middle" font-size="10" fill="#fff" style="fill:#fff">0.741</text><rect x="910" y="423" width="103" height="25" rx="2" fill="#92bab0"/><text x="961.5" y="440" text-anchor="middle" font-size="10" fill="#18202a" style="fill:#18202a">0.625</text><text class="label" x="375" y="467" text-anchor="end">lsml_continuous · resid-core-32 · all32 · dependency</text><rect x="385" y="450" width="103" height="25" rx="2" fill="#bad2cb"/><text x="436.5" y="467" text-anchor="middle" font-size="10" fill="#18202a" style="fill:#18202a">0.538</text><rect x="490" y="450" width="103" height="25" rx="2" fill="#3a8573"/><text x="541.5" y="467" text-anchor="middle" font-size="10" fill="#fff" style="fill:#fff">0.815</text><rect x="595" y="450" width="103" height="25" rx="2" fill="#539484"/><text x="646.5" y="467" text-anchor="middle" font-size="10" fill="#fff" style="fill:#fff">0.761</text><rect x="700" y="450" width="103" height="25" rx="2" fill="#cfdfda"/><text x="751.5" y="467" text-anchor="middle" font-size="10" fill="#18202a" style="fill:#18202a">0.492</text><rect x="805" y="450" width="103" height="25" rx="2" fill="#5e9b8c"/><text x="856.5" y="467" text-anchor="middle" font-size="10" fill="#fff" style="fill:#fff">0.736</text><rect x="910" y="450" width="103" height="25" rx="2" fill="#97bdb3"/><text x="961.5" y="467" text-anchor="middle" font-size="10" fill="#18202a" style="fill:#18202a">0.615</text><text class="label" x="375" y="494" text-anchor="end">clustered_upcr · resid-core-32 · all32 · dependency</text><rect x="385" y="477" width="103" height="25" rx="2" fill="#a0c3ba"/><text x="436.5" y="494" text-anchor="middle" font-size="10" fill="#18202a" style="fill:#18202a">0.594</text><rect x="490" y="477" width="103" height="25" rx="2" fill="#32806e"/><text x="541.5" y="494" text-anchor="middle" font-size="10" fill="#fff" style="fill:#fff">0.832</text><rect x="595" y="477" width="103" height="25" rx="2" fill="#599788"/><text x="646.5" y="494" text-anchor="middle" font-size="10" fill="#fff" style="fill:#fff">0.749</text><rect x="700" y="477" width="103" height="25" rx="2" fill="#ccded8"/><text x="751.5" y="494" text-anchor="middle" font-size="10" fill="#18202a" style="fill:#18202a">0.499</text><rect x="805" y="477" width="103" height="25" rx="2" fill="#599789"/><text x="856.5" y="494" text-anchor="middle" font-size="10" fill="#fff" style="fill:#fff">0.748</text><rect x="910" y="477" width="103" height="25" rx="2" fill="#94bcb2"/><text x="961.5" y="494" text-anchor="middle" font-size="10" fill="#18202a" style="fill:#18202a">0.619</text><text class="label" x="375" y="521" text-anchor="end">upcr · resid-core-32 · all32 · hierarchical-bands</text><rect x="385" y="504" width="103" height="25" rx="2" fill="#91b9af"/><text x="436.5" y="521" text-anchor="middle" font-size="10" fill="#18202a" style="fill:#18202a">0.627</text><rect x="490" y="504" width="103" height="25" rx="2" fill="#3e8776"/><text x="541.5" y="521" text-anchor="middle" font-size="10" fill="#fff" style="fill:#fff">0.808</text><rect x="595" y="504" width="103" height="25" rx="2" fill="#68a093"/><text x="646.5" y="521" text-anchor="middle" font-size="10" fill="#fff" style="fill:#fff">0.716</text><rect x="700" y="504" width="103" height="25" rx="2" fill="#d1e0db"/><text x="751.5" y="521" text-anchor="middle" font-size="10" fill="#18202a" style="fill:#18202a">0.488</text><rect x="805" y="504" width="103" height="25" rx="2" fill="#639d8f"/><text x="856.5" y="521" text-anchor="middle" font-size="10" fill="#fff" style="fill:#fff">0.727</text><rect x="910" y="504" width="103" height="25" rx="2" fill="#8eb7ad"/><text x="961.5" y="521" text-anchor="middle" font-size="10" fill="#18202a" style="fill:#18202a">0.634</text><text class="label" x="375" y="548" text-anchor="end">iu_pcr · resid-core-32 · all32 · hierarchical-bands</text><rect x="385" y="531" width="103" height="25" rx="2" fill="#90b9ae"/><text x="436.5" y="548" text-anchor="middle" font-size="10" fill="#18202a" style="fill:#18202a">0.630</text><rect x="490" y="531" width="103" height="25" rx="2" fill="#368270"/><text x="541.5" y="548" text-anchor="middle" font-size="10" fill="#fff" style="fill:#fff">0.824</text><rect x="595" y="531" width="103" height="25" rx="2" fill="#519283"/><text x="646.5" y="548" text-anchor="middle" font-size="10" fill="#fff" style="fill:#fff">0.766</text><rect x="700" y="531" width="103" height="25" rx="2" fill="#cdded9"/><text x="751.5" y="548" text-anchor="middle" font-size="10" fill="#18202a" style="fill:#18202a">0.496</text><rect x="805" y="531" width="103" height="25" rx="2" fill="#5e9a8c"/><text x="856.5" y="548" text-anchor="middle" font-size="10" fill="#fff" style="fill:#fff">0.739</text><rect x="910" y="531" width="103" height="25" rx="2" fill="#93bbb0"/><text x="961.5" y="548" text-anchor="middle" font-size="10" fill="#18202a" style="fill:#18202a">0.623</text><text class="label" x="375" y="575" text-anchor="end">dufs_liu_pcr · resid-core-32 · all32 · hierarchical…</text><rect x="385" y="558" width="103" height="25" rx="2" fill="#90b9af"/><text x="436.5" y="575" text-anchor="middle" font-size="10" fill="#18202a" style="fill:#18202a">0.629</text><rect x="490" y="558" width="103" height="25" rx="2" fill="#368271"/><text x="541.5" y="575" text-anchor="middle" font-size="10" fill="#fff" style="fill:#fff">0.823</text><rect x="595" y="558" width="103" height="25" rx="2" fill="#519283"/><text x="646.5" y="575" text-anchor="middle" font-size="10" fill="#fff" style="fill:#fff">0.766</text><rect x="700" y="558" width="103" height="25" rx="2" fill="#cdded9"/><text x="751.5" y="575" text-anchor="middle" font-size="10" fill="#18202a" style="fill:#18202a">0.496</text><rect x="805" y="558" width="103" height="25" rx="2" fill="#5d9a8c"/><text x="856.5" y="575" text-anchor="middle" font-size="10" fill="#fff" style="fill:#fff">0.739</text><rect x="910" y="558" width="103" height="25" rx="2" fill="#93bbb0"/><text x="961.5" y="575" text-anchor="middle" font-size="10" fill="#18202a" style="fill:#18202a">0.623</text><text class="label" x="375" y="602" text-anchor="end">upcr · lens-96 · spaced8</text><rect x="385" y="585" width="103" height="25" rx="2" fill="#498d7d"/><text x="436.5" y="602" text-anchor="middle" font-size="10" fill="#fff" style="fill:#fff">0.783</text><rect x="490" y="585" width="103" height="25" rx="2" fill="#609c8e"/><text x="541.5" y="602" text-anchor="middle" font-size="10" fill="#fff" style="fill:#fff">0.732</text><rect x="595" y="585" width="103" height="25" rx="2" fill="#438a79"/><text x="646.5" y="602" text-anchor="middle" font-size="10" fill="#fff" style="fill:#fff">0.796</text><rect x="700" y="585" width="103" height="25" rx="2" fill="#bed5ce"/><text x="751.5" y="602" text-anchor="middle" font-size="10" fill="#18202a" style="fill:#18202a">0.529</text><rect x="805" y="585" width="103" height="25" rx="2" fill="#5e9a8c"/><text x="856.5" y="602" text-anchor="middle" font-size="10" fill="#fff" style="fill:#fff">0.738</text><rect x="910" y="585" width="103" height="25" rx="2" fill="#69a194"/><text x="961.5" y="602" text-anchor="middle" font-size="10" fill="#fff" style="fill:#fff">0.713</text><text class="label" x="375" y="629" text-anchor="end">iu_pcr · lens-96 · spaced8</text><rect x="385" y="612" width="103" height="25" rx="2" fill="#5d9a8b"/><text x="436.5" y="629" text-anchor="middle" font-size="10" fill="#fff" style="fill:#fff">0.739</text><rect x="490" y="612" width="103" height="25" rx="2" fill="#176f5b"/><text x="541.5" y="629" text-anchor="middle" font-size="10" fill="#fff" style="fill:#fff">0.891</text><rect x="595" y="612" width="103" height="25" rx="2" fill="#448a7a"/><text x="646.5" y="629" text-anchor="middle" font-size="10" fill="#fff" style="fill:#fff">0.795</text><rect x="700" y="612" width="103" height="25" rx="2" fill="#b6d0c9"/><text x="751.5" y="629" text-anchor="middle" font-size="10" fill="#18202a" style="fill:#18202a">0.547</text><rect x="805" y="612" width="103" height="25" rx="2" fill="#388372"/><text x="856.5" y="629" text-anchor="middle" font-size="10" fill="#fff" style="fill:#fff">0.821</text><rect x="910" y="612" width="103" height="25" rx="2" fill="#6aa294"/><text x="961.5" y="629" text-anchor="middle" font-size="10" fill="#fff" style="fill:#fff">0.712</text><text class="label" x="375" y="656" text-anchor="end">dufs_liu_pcr · lens-96 · spaced8</text><rect x="385" y="639" width="103" height="25" rx="2" fill="#579687"/><text x="436.5" y="656" text-anchor="middle" font-size="10" fill="#fff" style="fill:#fff">0.753</text><rect x="490" y="639" width="103" height="25" rx="2" fill="#19705d"/><text x="541.5" y="656" text-anchor="middle" font-size="10" fill="#fff" style="fill:#fff">0.887</text><rect x="595" y="639" width="103" height="25" rx="2" fill="#448a7a"/><text x="646.5" y="656" text-anchor="middle" font-size="10" fill="#fff" style="fill:#fff">0.795</text><rect x="700" y="639" width="103" height="25" rx="2" fill="#b6d0c9"/><text x="751.5" y="656" text-anchor="middle" font-size="10" fill="#18202a" style="fill:#18202a">0.547</text><rect x="805" y="639" width="103" height="25" rx="2" fill="#388372"/><text x="856.5" y="656" text-anchor="middle" font-size="10" fill="#fff" style="fill:#fff">0.820</text><rect x="910" y="639" width="103" height="25" rx="2" fill="#69a194"/><text x="961.5" y="656" text-anchor="middle" font-size="10" fill="#fff" style="fill:#fff">0.714</text><text class="label" x="375" y="683" text-anchor="end">upcr · lens-96 · spaced8 · hierarchical-module-metr…</text><rect x="385" y="666" width="103" height="25" rx="2" fill="#438a79"/><text x="436.5" y="683" text-anchor="middle" font-size="10" fill="#fff" style="fill:#fff">0.796</text><rect x="490" y="666" width="103" height="25" rx="2" fill="#287967"/><text x="541.5" y="683" text-anchor="middle" font-size="10" fill="#fff" style="fill:#fff">0.855</text><rect x="595" y="666" width="103" height="25" rx="2" fill="#589688"/><text x="646.5" y="683" text-anchor="middle" font-size="10" fill="#fff" style="fill:#fff">0.751</text><rect x="700" y="666" width="103" height="25" rx="2" fill="#cfdfda"/><text x="751.5" y="683" text-anchor="middle" font-size="10" fill="#18202a" style="fill:#18202a">0.492</text><rect x="805" y="666" width="103" height="25" rx="2" fill="#5c998b"/><text x="856.5" y="683" text-anchor="middle" font-size="10" fill="#fff" style="fill:#fff">0.741</text><rect x="910" y="666" width="103" height="25" rx="2" fill="#87b4a9"/><text x="961.5" y="683" text-anchor="middle" font-size="10" fill="#18202a" style="fill:#18202a">0.647</text><text class="label" x="375" y="710" text-anchor="end">iu_pcr · lens-96 · spaced8 · hierarchical-module-me…</text><rect x="385" y="693" width="103" height="25" rx="2" fill="#438a79"/><text x="436.5" y="710" text-anchor="middle" font-size="10" fill="#fff" style="fill:#fff">0.797</text><rect x="490" y="693" width="103" height="25" rx="2" fill="#1b725e"/><text x="541.5" y="710" text-anchor="middle" font-size="10" fill="#fff" style="fill:#fff">0.882</text><rect x="595" y="693" width="103" height="25" rx="2" fill="#4b8f7f"/><text x="646.5" y="710" text-anchor="middle" font-size="10" fill="#fff" style="fill:#fff">0.778</text><rect x="700" y="693" width="103" height="25" rx="2" fill="#ecf1ee"/><text x="751.5" y="710" text-anchor="middle" font-size="10" fill="#18202a" style="fill:#18202a">0.429</text><rect x="805" y="693" width="103" height="25" rx="2" fill="#468b7b"/><text x="856.5" y="710" text-anchor="middle" font-size="10" fill="#fff" style="fill:#fff">0.791</text><rect x="910" y="693" width="103" height="25" rx="2" fill="#87b3a8"/><text x="961.5" y="710" text-anchor="middle" font-size="10" fill="#18202a" style="fill:#18202a">0.649</text><text class="label" x="375" y="737" text-anchor="end">dufs_liu_pcr · lens-96 · spaced8 · hierarchical-mod…</text><rect x="385" y="720" width="103" height="25" rx="2" fill="#438a79"/><text x="436.5" y="737" text-anchor="middle" font-size="10" fill="#fff" style="fill:#fff">0.797</text><rect x="490" y="720" width="103" height="25" rx="2" fill="#247764"/><text x="541.5" y="737" text-anchor="middle" font-size="10" fill="#fff" style="fill:#fff">0.863</text><rect x="595" y="720" width="103" height="25" rx="2" fill="#4c8f7f"/><text x="646.5" y="737" text-anchor="middle" font-size="10" fill="#fff" style="fill:#fff">0.777</text><rect x="700" y="720" width="103" height="25" rx="2" fill="#e9efec"/><text x="751.5" y="737" text-anchor="middle" font-size="10" fill="#18202a" style="fill:#18202a">0.435</text><rect x="805" y="720" width="103" height="25" rx="2" fill="#458b7a"/><text x="856.5" y="737" text-anchor="middle" font-size="10" fill="#fff" style="fill:#fff">0.793</text><rect x="910" y="720" width="103" height="25" rx="2" fill="#86b3a8"/><text x="961.5" y="737" text-anchor="middle" font-size="10" fill="#18202a" style="fill:#18202a">0.650</text><text class="label" x="375" y="764" text-anchor="end">upcr · resid-core-32-length-residualized · all32</text><rect x="385" y="747" width="103" height="25" rx="2" fill="#bdd5ce"/><text x="436.5" y="764" text-anchor="middle" font-size="10" fill="#18202a" style="fill:#18202a">0.531</text><rect x="490" y="747" width="103" height="25" rx="2" fill="#96bcb3"/><text x="541.5" y="764" text-anchor="middle" font-size="10" fill="#18202a" style="fill:#18202a">0.616</text><rect x="595" y="747" width="103" height="25" rx="2" fill="#9abfb5"/><text x="646.5" y="764" text-anchor="middle" font-size="10" fill="#18202a" style="fill:#18202a">0.608</text><rect x="700" y="747" width="103" height="25" rx="2" fill="#dfe9e5"/><text x="751.5" y="764" text-anchor="middle" font-size="10" fill="#18202a" style="fill:#18202a">0.458</text><rect x="805" y="747" width="103" height="25" rx="2" fill="#9abfb5"/><text x="856.5" y="764" text-anchor="middle" font-size="10" fill="#18202a" style="fill:#18202a">0.607</text><rect x="910" y="747" width="103" height="25" rx="2" fill="#a5c6bd"/><text x="961.5" y="764" text-anchor="middle" font-size="10" fill="#18202a" style="fill:#18202a">0.583</text><text class="label" x="375" y="791" text-anchor="end">iu_pcr · resid-core-32-length-residualized · all32</text><rect x="385" y="774" width="103" height="25" rx="2" fill="#bfd5cf"/><text x="436.5" y="791" text-anchor="middle" font-size="10" fill="#18202a" style="fill:#18202a">0.527</text><rect x="490" y="774" width="103" height="25" rx="2" fill="#95bcb2"/><text x="541.5" y="791" text-anchor="middle" font-size="10" fill="#18202a" style="fill:#18202a">0.617</text><rect x="595" y="774" width="103" height="25" rx="2" fill="#9fc2b9"/><text x="646.5" y="791" text-anchor="middle" font-size="10" fill="#18202a" style="fill:#18202a">0.597</text><rect x="700" y="774" width="103" height="25" rx="2" fill="#dfe9e5"/><text x="751.5" y="791" text-anchor="middle" font-size="10" fill="#18202a" style="fill:#18202a">0.457</text><rect x="805" y="774" width="103" height="25" rx="2" fill="#99bfb5"/><text x="856.5" y="791" text-anchor="middle" font-size="10" fill="#18202a" style="fill:#18202a">0.609</text><rect x="910" y="774" width="103" height="25" rx="2" fill="#a7c7be"/><text x="961.5" y="791" text-anchor="middle" font-size="10" fill="#18202a" style="fill:#18202a">0.580</text><text class="label" x="375" y="818" text-anchor="end">dufs_liu_pcr · resid-core-32-length-residualized · …</text><rect x="385" y="801" width="103" height="25" rx="2" fill="#c4d9d3"/><text x="436.5" y="818" text-anchor="middle" font-size="10" fill="#18202a" style="fill:#18202a">0.515</text><rect x="490" y="801" width="103" height="25" rx="2" fill="#96bdb3"/><text x="541.5" y="818" text-anchor="middle" font-size="10" fill="#18202a" style="fill:#18202a">0.616</text><rect x="595" y="801" width="103" height="25" rx="2" fill="#9ec1b8"/><text x="646.5" y="818" text-anchor="middle" font-size="10" fill="#18202a" style="fill:#18202a">0.599</text><rect x="700" y="801" width="103" height="25" rx="2" fill="#e1eae6"/><text x="751.5" y="818" text-anchor="middle" font-size="10" fill="#18202a" style="fill:#18202a">0.453</text><rect x="805" y="801" width="103" height="25" rx="2" fill="#9bbfb6"/><text x="856.5" y="818" text-anchor="middle" font-size="10" fill="#18202a" style="fill:#18202a">0.606</text><rect x="910" y="801" width="103" height="25" rx="2" fill="#abc9c1"/><text x="961.5" y="818" text-anchor="middle" font-size="10" fill="#18202a" style="fill:#18202a">0.571</text></svg>