<svg xmlns="http://www.w3.org/2000/svg" viewBox="0 0 1120 690" role="img" aria-labelledby="title">
<title id="title">Fusion and graph diagnostics</title><style>
text{font-family:ui-sans-serif,system-ui,-apple-system,"Segoe UI",sans-serif;fill:#18202a}
.title{font-size:18px;font-weight:700}.label{font-size:11px}.small{font-size:9px;fill:#637080}
.axis{stroke:#aeb6c2;stroke-width:1}.grid{stroke:#e5e8eb;stroke-width:1}.tick{font-size:10px;fill:#637080}
</style><rect width="100%" height="100%" fill="#fff"/><text class="title" x="18" y="27">Fusion weights, DUFS gates, graph health, and convergence</text><text class="label" x="356.5" y="54" text-anchor="middle">Largest absolute fusion weights</text><text class="label" x="910.0" y="54" text-anchor="middle">Largest DUFS survival probabilities</text><line class="axis" x1="356.5" y1="78" x2="356.5" y2="410"/><rect x="356.5" y="78.0" width="43.1" height="19.7" fill="#7757a0" opacity=".84"/><text class="small" x="171" y="94.7" text-anchor="end">trilens_hierarchical_up…</text><text class="small" x="404.6" y="94.7" text-anchor="start">0.333</text><rect x="356.5" y="101.7" width="43.1" height="19.7" fill="#7757a0" opacity=".84"/><text class="small" x="171" y="118.4" text-anchor="end">trilens_hierarchical_up…</text><text class="small" x="404.6" y="118.4" text-anchor="start">0.333</text><rect x="356.5" y="125.4" width="43.1" height="19.7" fill="#7757a0" opacity=".84"/><text class="small" x="171" y="142.1" text-anchor="end">trilens_hierarchical_up…</text><text class="small" x="404.6" y="142.1" text-anchor="start">0.333</text><rect x="356.5" y="149.1" width="43.1" height="19.7" fill="#7757a0" opacity=".84"/><text class="small" x="171" y="165.9" text-anchor="end">hierarchical_all_upcr ·…</text><text class="small" x="404.6" y="165.9" text-anchor="start">0.333</text><rect x="356.5" y="172.9" width="43.1" height="19.7" fill="#7757a0" opacity=".84"/><text class="small" x="171" y="189.6" text-anchor="end">hierarchical_all_upcr ·…</text><text class="small" x="404.6" y="189.6" text-anchor="start">0.333</text><rect x="356.5" y="196.6" width="43.1" height="19.7" fill="#7757a0" opacity=".84"/><text class="small" x="171" y="213.3" text-anchor="end">hierarchical_all_upcr ·…</text><text class="small" x="404.6" y="213.3" text-anchor="start">0.333</text><rect x="356.5" y="220.3" width="43.3" height="19.7" fill="#7757a0" opacity=".84"/><text class="small" x="171" y="237.0" text-anchor="end">trilens_hierarchical_iu…</text><text class="small" x="404.8" y="237.0" text-anchor="start">0.334</text><rect x="356.5" y="244.0" width="43.8" height="19.7" fill="#7757a0" opacity=".84"/><text class="small" x="171" y="260.7" text-anchor="end">trilens_hierarchical_iu…</text><text class="small" x="405.3" y="260.7" text-anchor="start">0.339</text><rect x="312.2" y="267.7" width="44.3" height="19.7" fill="#7757a0" opacity=".84"/><text class="small" x="171" y="284.4" text-anchor="end">trilens_hierarchical_iu…</text><text class="small" x="307.2" y="284.4" text-anchor="end">-0.343</text><rect x="356.5" y="291.4" width="46.9" height="19.7" fill="#7757a0" opacity=".84"/><text class="small" x="171" y="308.1" text-anchor="end">trilens_hierarchical_iu…</text><text class="small" x="408.4" y="308.1" text-anchor="start">0.362</text><rect x="250.5" y="315.1" width="106.0" height="19.7" fill="#7757a0" opacity=".84"/><text class="small" x="171" y="331.9" text-anchor="end">trilens_hierarchical_du…</text><text class="small" x="245.5" y="331.9" text-anchor="end">-0.819</text><rect x="243.4" y="338.9" width="113.1" height="19.7" fill="#7757a0" opacity=".84"/><text class="small" x="171" y="355.6" text-anchor="end">trilens_hierarchical_iu…</text><text class="small" x="238.4" y="355.6" text-anchor="end">-0.874</text><rect x="193.3" y="362.6" width="163.2" height="19.7" fill="#7757a0" opacity=".84"/><text class="small" x="171" y="379.3" text-anchor="end">trilens_hierarchical_du…</text><text class="small" x="188.3" y="379.3" text-anchor="end">-1.262</text><rect x="178.0" y="386.3" width="178.5" height="19.7" fill="#7757a0" opacity=".84"/><text class="small" x="171" y="403.0" text-anchor="end">trilens_hierarchical_iu…</text><text class="small" x="173.0" y="403.0" text-anchor="end">-1.380</text><line class="axis" x1="735" y1="78" x2="735" y2="410"/><rect x="735.0" y="78.0" width="342.5" height="19.7" fill="#176f5b" opacity=".84"/><text class="small" x="728" y="94.7" text-anchor="end">trilens_core · 95 · gsm…</text><text class="small" x="1082.5" y="94.7" text-anchor="start">2.282</text><rect x="735.0" y="101.7" width="349.8" height="19.7" fill="#176f5b" opacity=".84"/><text class="small" x="728" y="118.4" text-anchor="end">trilens_core · 91 · gsm…</text><text class="small" x="1089.8" y="118.4" text-anchor="start">2.331</text><rect x="735.0" y="125.4" width="349.8" height="19.7" fill="#176f5b" opacity=".84"/><text class="small" x="728" y="142.1" text-anchor="end">trilens_core · 82 · gsm…</text><text class="small" x="1089.8" y="142.1" text-anchor="start">2.331</text><rect x="735.0" y="149.1" width="349.9" height="19.7" fill="#176f5b" opacity=".84"/><text class="small" x="728" y="165.9" text-anchor="end">trilens_core · 93 · gsm…</text><text class="small" x="1089.9" y="165.9" text-anchor="start">2.332</text><rect x="735.0" y="172.9" width="349.9" height="19.7" fill="#176f5b" opacity=".84"/><text class="small" x="728" y="189.6" text-anchor="end">trilens_core · 81 · gsm…</text><text class="small" x="1089.9" y="189.6" text-anchor="start">2.332</text><rect x="735.0" y="196.6" width="349.9" height="19.7" fill="#176f5b" opacity=".84"/><text class="small" x="728" y="213.3" text-anchor="end">trilens_core · 89 · gsm…</text><text class="small" x="1089.9" y="213.3" text-anchor="start">2.332</text><rect x="735.0" y="220.3" width="349.9" height="19.7" fill="#176f5b" opacity=".84"/><text class="small" x="728" y="237.0" text-anchor="end">trilens_core · 83 · gsm…</text><text class="small" x="1089.9" y="237.0" text-anchor="start">2.332</text><rect x="735.0" y="244.0" width="349.9" height="19.7" fill="#176f5b" opacity=".84"/><text class="small" x="728" y="260.7" text-anchor="end">trilens_core · 88 · gsm…</text><text class="small" x="1089.9" y="260.7" text-anchor="start">2.332</text><rect x="735.0" y="267.7" width="349.9" height="19.7" fill="#176f5b" opacity=".84"/><text class="small" x="728" y="284.4" text-anchor="end">trilens_core · 90 · gsm…</text><text class="small" x="1089.9" y="284.4" text-anchor="start">2.332</text><rect x="735.0" y="291.4" width="350.0" height="19.7" fill="#176f5b" opacity=".84"/><text class="small" x="728" y="308.1" text-anchor="end">trilens_core · 85 · gsm…</text><text class="small" x="1090.0" y="308.1" text-anchor="start">2.332</text><rect x="735.0" y="315.1" width="350.0" height="19.7" fill="#176f5b" opacity=".84"/><text class="small" x="728" y="331.9" text-anchor="end">trilens_core · 84 · gsm…</text><text class="small" x="1090.0" y="331.9" text-anchor="start">2.332</text><rect x="735.0" y="338.9" width="350.0" height="19.7" fill="#176f5b" opacity=".84"/><text class="small" x="728" y="355.6" text-anchor="end">trilens_core · 86 · gsm…</text><text class="small" x="1090.0" y="355.6" text-anchor="start">2.332</text><rect x="735.0" y="362.6" width="350.0" height="19.7" fill="#176f5b" opacity=".84"/><text class="small" x="728" y="379.3" text-anchor="end">trilens_core · 92 · gsm…</text><text class="small" x="1090.0" y="379.3" text-anchor="start">2.332</text><rect x="735.0" y="386.3" width="350.0" height="19.7" fill="#176f5b" opacity=".84"/><text class="small" x="728" y="403.0" text-anchor="end">trilens_core · 87 · gsm…</text><text class="small" x="1090.0" y="403.0" text-anchor="start">2.332</text><text class="label" x="18" y="458">Graph and optimizer health (generic runner fields)</text><text class="small" x="28" y="485">gsm8k_t1.0 · controls_all · cont…</text><text class="small" x="290" y="485">diagnostic row supplied</text><text class="small" x="28" y="512">gsm8k_t1.0 · core_all · core_all</text><text class="small" x="290" y="512">Components: 1  ·  Mean degree: 3.864262801519184  ·  Spectral gap: 0.017033905615006024</text><text class="small" x="28" y="539">gsm8k_t1.0 · core_all · core_all</text><text class="small" x="290" y="539">Seed: 0  ·  Epoch: 0</text><text class="small" x="28" y="566">gsm8k_t1.0 · core_all · core_all</text><text class="small" x="290" y="566">Seed: 0  ·  Epoch: 1</text><text class="small" x="28" y="593">gsm8k_t1.0 · core_all · core_all</text><text class="small" x="290" y="593">Seed: 0  ·  Epoch: 2</text><text class="small" x="28" y="620">gsm8k_t1.0 · core_all · core_all</text><text class="small" x="290" y="620">Seed: 0  ·  Epoch: 3</text><text class="small" x="28" y="647">gsm8k_t1.0 · core_all · core_all</text><text class="small" x="290" y="647">Seed: 0  ·  Epoch: 4</text></svg>