<svg xmlns="http://www.w3.org/2000/svg" viewBox="0 0 960 398" role="img" aria-label="32-layer cohort macro AUROC"><style>text{font-family:ui-sans-serif,system-ui,sans-serif;fill:#20303a}.label{font-size:12px}.small{font-size:10px;fill:#687782}.title{font-size:15px;font-weight:700}.grid{stroke:#d8e0e4;stroke-width:1}.zero{stroke:#25343e;stroke-width:1.5}</style><text class="title" x="15" y="24">Equal-cell macro AUROC · exact 32-layer cohort</text><line class="grid" x1="340.0" x2="340.0" y1="38" y2="373"/><text class="small" x="340.0" y="390" text-anchor="middle">0.55</text><line class="grid" x1="457.0" x2="457.0" y1="38" y2="373"/><text class="small" x="457.0" y="390" text-anchor="middle">0.59</text><line class="grid" x1="574.0" x2="574.0" y1="38" y2="373"/><text class="small" x="574.0" y="390" text-anchor="middle">0.63</text><line class="grid" x1="691.0" x2="691.0" y1="38" y2="373"/><text class="small" x="691.0" y="390" text-anchor="middle">0.66</text><line class="grid" x1="808.0" x2="808.0" y1="38" y2="373"/><text class="small" x="808.0" y="390" text-anchor="middle">0.70</text><line class="grid" x1="925.0" x2="925.0" y1="38" y2="373"/><text class="small" x="925.0" y="390" text-anchor="middle">0.74</text><text class="label" x="15" y="58">Final-layer NLL</text><line x1="814.5" x2="893.3" y1="54" y2="54" stroke="#286f9b" stroke-width="3"/><circle cx="856.0" cy="54" r="5" fill="#286f9b"/><text class="small" x="925" y="58" text-anchor="end">0.7140</text><text class="label" x="15" y="96">IU-PCR · one averaged expert/layer</text><line x1="497.7" x2="585.3" y1="92" y2="92" stroke="#286f9b" stroke-width="3"/><circle cx="543.7" cy="92" r="5" fill="#286f9b"/><text class="small" x="925" y="96" text-anchor="end">0.6155</text><text class="label" x="15" y="134">IU-PCR · layer-organic triad</text><line x1="374.3" x2="464.8" y1="130" y2="130" stroke="#7d4c9e" stroke-width="3"/><circle cx="419.3" cy="130" r="5" fill="#7d4c9e"/><text class="small" x="925" y="134" text-anchor="end">0.5763</text><text class="label" x="15" y="172">Layer-organic NRM · leave-dataset-out</text><line x1="379.4" x2="469.3" y1="168" y2="168" stroke="#14735c" stroke-width="3"/><circle cx="423.6" cy="168" r="5" fill="#14735c"/><text class="small" x="925" y="172" text-anchor="end">0.5776</text><text class="label" x="15" y="210">Layer-organic NRM · leave-model-out</text><line x1="373.2" x2="463.0" y1="206" y2="206" stroke="#14735c" stroke-width="3"/><circle cx="417.7" cy="206" r="5" fill="#14735c"/><text class="small" x="925" y="210" text-anchor="end">0.5758</text><text class="label" x="15" y="248">Layer-organic NRM · leave-cell-out</text><line x1="371.7" x2="462.2" y1="244" y2="244" stroke="#14735c" stroke-width="3"/><circle cx="416.4" cy="244" r="5" fill="#14735c"/><text class="small" x="925" y="248" text-anchor="end">0.5753</text><text class="label" x="15" y="286">IU-PCR · layer-organic + KL sensitivity</text><line x1="456.9" x2="542.0" y1="282" y2="282" stroke="#286f9b" stroke-width="3"/><circle cx="500.4" cy="282" r="5" fill="#286f9b"/><text class="small" x="925" y="286" text-anchor="end">0.6018</text><text class="label" x="15" y="324">Layer-organic NRM + KL · leave-dataset-out</text><line x1="454.0" x2="539.2" y1="320" y2="320" stroke="#14735c" stroke-width="3"/><circle cx="497.2" cy="320" r="5" fill="#14735c"/><text class="small" x="925" y="324" text-anchor="end">0.6008</text></svg>